<svg width="62" height="63" viewBox="0 0 62 63" fill="none" xmlns="http://www.w3.org/2000/svg">
<circle cx="30.5436" cy="31.5" r="30.5436" fill="#F7F762"/>
<path d="M35.7016 18.4031C34.3919 17.0006 32.5627 16.2282 30.5436 16.2282C28.5138 16.2282 26.6785 16.9959 25.3748 18.3898C24.0571 19.799 23.415 21.7143 23.5657 23.7824C23.8646 27.8626 26.9948 31.1818 30.5436 31.1818C34.0924 31.1818 37.2173 27.8633 37.5208 23.7837C37.6736 21.7343 37.0275 19.823 35.7016 18.4031ZM42.3887 46.1353H18.6985C18.3884 46.1393 18.0813 46.0747 17.7996 45.9462C17.5178 45.8176 17.2685 45.6284 17.0698 45.3923C16.6323 44.8736 16.456 44.1653 16.5865 43.449C17.1546 40.3235 18.9273 37.6979 21.7136 35.8547C24.189 34.2185 27.3246 33.318 30.5436 33.318C33.7626 33.318 36.8982 34.2192 39.3736 35.8547C42.1599 37.6972 43.9326 40.3228 44.5007 43.4484C44.6312 44.1647 44.4549 44.8729 44.0174 45.3916C43.8188 45.6279 43.5695 45.8172 43.2877 45.9459C43.006 46.0745 42.6989 46.1392 42.3887 46.1353Z" fill="black"/>
</svg>
