<svg width="53" height="54" viewBox="0 0 53 54" fill="none" xmlns="http://www.w3.org/2000/svg">
    <path d="M35.4469 25.1605L27.7733 34.3827C27.6178 34.5696 27.4232 34.7199 27.2032 34.8231C26.9831 34.9262 26.7431 34.9797 26.5 34.9797C26.257 34.9797 26.017 34.9262 25.7969 34.8231C25.5769 34.7199 25.3822 34.5696 25.2268 34.3827L17.5532 25.1605C17.3521 24.9187 17.224 24.6246 17.1839 24.3126C17.1438 24.0006 17.1934 23.6837 17.3269 23.3988C17.4603 23.114 17.6721 22.8731 17.9375 22.7042C18.2029 22.5354 18.5108 22.4456 18.8254 22.4453H34.1747C34.4892 22.4456 34.7972 22.5354 35.0626 22.7042C35.3279 22.8731 35.5397 23.114 35.6732 23.3988C35.8066 23.6837 35.8562 24.0006 35.8162 24.3126C35.7761 24.6246 35.648 24.9187 35.4469 25.1605Z" fill="#F7F762" />
    <path d="M46.375 27C46.375 16.0273 37.4727 7.125 26.5 7.125C15.5273 7.125 6.625 16.0273 6.625 27C6.625 37.9727 15.5273 46.875 26.5 46.875C37.4727 46.875 46.375 37.9727 46.375 27Z" stroke="#F7F762" stroke-width="3" stroke-miterlimit="10" />
</svg>
