<svg width="26" height="25" viewBox="0 0 26 25" fill="none" xmlns="http://www.w3.org/2000/svg">
<path d="M23.3695 19.0226C22.4915 18.138 20.3651 16.8471 19.3334 16.3269C17.9898 15.6502 17.8792 15.5949 16.8232 16.3794C16.1188 16.9029 15.6505 17.3707 14.8261 17.1949C14.0018 17.019 12.2104 16.0278 10.6418 14.4643C9.07323 12.9008 8.02438 11.0576 7.848 10.236C7.67163 9.41445 8.14712 8.9517 8.66574 8.2457C9.39667 7.25055 9.34138 7.08469 8.71661 5.74124C8.2295 4.69633 6.90089 2.58993 6.01293 1.71641C5.06306 0.778209 5.06306 0.944067 4.451 1.19838C3.95271 1.40802 3.47467 1.66285 3.02286 1.95967C2.13823 2.54736 1.64725 3.03554 1.3039 3.76919C0.960552 4.50283 0.806294 6.22278 2.57944 9.44375C4.35258 12.6647 5.5966 14.3117 8.17145 16.8792C10.7463 19.4467 12.7262 20.8272 15.6206 22.4504C19.2012 24.4556 20.5746 24.0647 21.3105 23.7219C22.0464 23.3792 22.5368 22.8926 23.1257 22.0081C23.4233 21.5571 23.6787 21.0796 23.8887 20.5817C24.1436 19.9719 24.3094 19.9719 23.3695 19.0226Z" stroke="#F7F762" stroke-width="2" stroke-miterlimit="10"/>
</svg>
