<svg width="323" height="54" viewBox="0 0 323 54" fill="none" xmlns="http://www.w3.org/2000/svg">
<g filter="url(#filter0_i_9_19)">
<path d="M14.606 3.97648C18.3322 3.97648 21.5196 4.60499 24.1683 5.862C26.817 7.11901 28.8372 8.91475 30.2289 11.2492C31.6655 13.5837 32.3838 16.4119 32.3838 19.734C32.3838 21.6645 32.0695 23.5949 31.441 25.5253C30.8574 27.4557 29.9147 29.2065 28.6128 30.7778C27.3557 32.3491 25.6498 33.6285 23.4949 34.6162C21.3849 35.5589 18.7811 36.0303 15.6835 36.0303H8.61278V53H0.734V3.97648H14.606ZM15.6835 28.4209C17.3894 28.4209 18.826 28.1291 19.9932 27.5455C21.1605 26.9619 22.0583 26.2211 22.6868 25.3233C23.3602 24.4254 23.8316 23.5051 24.101 22.5623C24.4152 21.5747 24.5724 20.6992 24.5724 19.9361C24.5724 19.128 24.4377 18.2526 24.1683 17.3098C23.899 16.3221 23.45 15.4018 22.8215 14.5489C22.193 13.651 21.3176 12.9327 20.1953 12.394C19.0729 11.8104 17.6363 11.5186 15.8855 11.5186H8.61278V28.4209H15.6835ZM40.352 53V0.474801H47.7594V30.7778L47.6247 29.633C48.6124 27.7924 50.0714 26.2885 52.0018 25.1212C53.9322 23.9091 56.2443 23.3031 58.9379 23.3031C61.6315 23.3031 63.8537 24.0887 65.6045 25.66C67.3554 27.2312 68.2532 29.2963 68.2981 31.8552V53H60.756V34.5488C60.7111 33.1123 60.3071 31.9675 59.5439 31.1145C58.7807 30.2166 57.5686 29.7453 55.9076 29.7004C54.3812 29.7004 53.0119 30.1717 51.7998 31.1145C50.5877 32.0573 49.6225 33.3367 48.9042 34.9529C48.2308 36.5241 47.8941 38.3199 47.8941 40.3401V53H40.352ZM76.3342 38.4546C76.3342 35.5814 77.0076 33 78.3544 30.7105C79.7012 28.376 81.5867 26.5578 84.011 25.2559C86.4801 23.9091 89.2635 23.2357 92.3611 23.2357C95.5485 23.2357 98.3095 23.9091 100.644 25.2559C103.023 26.5578 104.864 28.376 106.166 30.7105C107.468 33 108.119 35.5814 108.119 38.4546C108.119 41.3277 107.468 43.9315 106.166 46.266C104.864 48.5556 103.023 50.3737 100.644 51.7205C98.3095 53.0673 95.5261 53.7407 92.2938 53.7407C89.241 53.7407 86.5025 53.1347 84.0783 51.9226C81.6541 50.6655 79.7461 48.8923 78.3544 46.6027C77.0076 44.3131 76.3342 41.5971 76.3342 38.4546ZM83.9436 38.5219C83.9436 40.183 84.3028 41.7093 85.0211 43.101C85.7393 44.4478 86.727 45.5253 87.984 46.3333C89.241 47.1414 90.6327 47.5455 92.1591 47.5455C93.8201 47.5455 95.2567 47.1414 96.4689 46.3333C97.7259 45.5253 98.6911 44.4478 99.3645 43.101C100.083 41.7093 100.442 40.183 100.442 38.5219C100.442 36.816 100.083 35.2896 99.3645 33.9428C98.6911 32.5511 97.7259 31.4512 96.4689 30.6431C95.2567 29.835 93.8201 29.431 92.1591 29.431C90.5878 29.431 89.1737 29.8575 87.9167 30.7105C86.7046 31.5185 85.7393 32.596 85.0211 33.9428C84.3028 35.2896 83.9436 36.816 83.9436 38.5219ZM122.845 24.5152L123.518 30.6431L123.249 29.835C124.237 27.8597 125.696 26.2885 127.626 25.1212C129.602 23.9091 131.936 23.3031 134.63 23.3031C137.323 23.3031 139.545 24.0887 141.296 25.66C143.047 27.2312 143.945 29.2963 143.99 31.8552V53H136.448V34.5488C136.403 33.1123 135.999 31.9675 135.236 31.1145C134.472 30.2166 133.26 29.7453 131.599 29.7004C130.073 29.7004 128.704 30.1717 127.492 31.1145C126.279 32.0124 125.314 33.2694 124.596 34.8855C123.923 36.4568 123.586 38.275 123.586 40.3401V53H116.044V24.5152H122.845ZM167.986 53.7407C164.619 53.7407 161.745 53.0898 159.366 51.7879C156.987 50.486 155.168 48.6902 153.911 46.4007C152.654 44.0662 152.026 41.44 152.026 38.5219C152.026 35.6487 152.744 33.0674 154.181 30.7778C155.617 28.4882 157.548 26.6701 159.972 25.3233C162.441 23.9316 165.157 23.2357 168.12 23.2357C172.026 23.2357 175.236 24.3805 177.75 26.6701C180.309 28.9147 182.015 32.1022 182.868 36.2323L159.905 43.9764L158.154 39.734L176.066 33.3367L174.517 34.2121C174.024 32.8653 173.216 31.6981 172.093 30.7105C171.016 29.7228 169.489 29.229 167.514 29.229C165.943 29.229 164.551 29.6106 163.339 30.3738C162.127 31.0921 161.162 32.1246 160.443 33.4714C159.77 34.7733 159.433 36.3221 159.433 38.1179C159.433 39.9585 159.815 41.5746 160.578 42.9663C161.341 44.358 162.374 45.4355 163.676 46.1987C164.978 46.917 166.459 47.2761 168.12 47.2761C169.287 47.2761 170.41 47.0741 171.487 46.67C172.565 46.266 173.575 45.7273 174.517 45.0539L177.952 50.6431C176.47 51.5859 174.832 52.349 173.036 52.9327C171.285 53.4714 169.602 53.7407 167.986 53.7407ZM205.71 3.97648C209.436 3.97648 212.623 4.60499 215.272 5.862C217.921 7.11901 219.941 8.91475 221.332 11.2492C222.769 13.5837 223.487 16.4119 223.487 19.734C223.487 21.6645 223.173 23.5949 222.545 25.5253C221.961 27.4557 221.018 29.2065 219.716 30.7778C218.459 32.3491 216.753 33.6285 214.598 34.6162C212.488 35.5589 209.885 36.0303 206.787 36.0303H199.716V53H191.838V3.97648H205.71ZM206.787 28.4209C208.493 28.4209 209.93 28.1291 211.097 27.5455C212.264 26.9619 213.162 26.2211 213.79 25.3233C214.464 24.4254 214.935 23.5051 215.205 22.5623C215.519 21.5747 215.676 20.6992 215.676 19.9361C215.676 19.128 215.541 18.2526 215.272 17.3098C215.003 16.3221 214.554 15.4018 213.925 14.5489C213.297 13.651 212.421 12.9327 211.299 12.394C210.176 11.8104 208.74 11.5186 206.989 11.5186H199.716V28.4209H206.787ZM231.456 24.5152H238.998V53H231.456V24.5152ZM231.119 14.3468C231.119 13.1796 231.568 12.2144 232.466 11.4512C233.408 10.688 234.419 10.3064 235.496 10.3064C236.573 10.3064 237.539 10.688 238.392 11.4512C239.289 12.2144 239.738 13.1796 239.738 14.3468C239.738 15.5141 239.289 16.4793 238.392 17.2425C237.539 17.9608 236.573 18.3199 235.496 18.3199C234.419 18.3199 233.408 17.9383 232.466 17.1751C231.568 16.4119 231.119 15.4692 231.119 14.3468ZM249.343 0.474801H256.885V53H249.343V0.474801ZM264.873 38.4546C264.873 35.5814 265.546 33 266.893 30.7105C268.24 28.376 270.126 26.5578 272.55 25.2559C275.019 23.9091 277.802 23.2357 280.9 23.2357C284.087 23.2357 286.848 23.9091 289.183 25.2559C291.562 26.5578 293.403 28.376 294.705 30.7105C296.007 33 296.657 35.5814 296.657 38.4546C296.657 41.3277 296.007 43.9315 294.705 46.266C293.403 48.5556 291.562 50.3737 289.183 51.7205C286.848 53.0673 284.065 53.7407 280.833 53.7407C277.78 53.7407 275.041 53.1347 272.617 51.9226C270.193 50.6655 268.285 48.8923 266.893 46.6027C265.546 44.3131 264.873 41.5971 264.873 38.4546ZM272.482 38.5219C272.482 40.183 272.842 41.7093 273.56 43.101C274.278 44.4478 275.266 45.5253 276.523 46.3333C277.78 47.1414 279.172 47.5455 280.698 47.5455C282.359 47.5455 283.796 47.1414 285.008 46.3333C286.265 45.5253 287.23 44.4478 287.903 43.101C288.622 41.7093 288.981 40.183 288.981 38.5219C288.981 36.816 288.622 35.2896 287.903 33.9428C287.23 32.5511 286.265 31.4512 285.008 30.6431C283.796 29.835 282.359 29.431 280.698 29.431C279.127 29.431 277.713 29.8575 276.455 30.7105C275.243 31.5185 274.278 32.596 273.56 33.9428C272.842 35.2896 272.482 36.816 272.482 38.5219ZM307.276 11.9899H314.886V24.5152H322.293V30.4411H314.886V53H307.276V30.4411H302.428V24.5152H307.276V11.9899Z" fill="black"/>
</g>
<path d="M24.1683 5.862L23.7396 6.76543L23.7396 6.76543L24.1683 5.862ZM30.2289 11.2492L29.3699 11.7613L29.3773 11.7733L30.2289 11.2492ZM31.441 25.5253L30.4902 25.2157L30.4869 25.2258L30.4838 25.2359L31.441 25.5253ZM28.6128 30.7778L27.8427 30.1398L27.8373 30.1464L27.8319 30.1531L28.6128 30.7778ZM23.4949 34.6162L23.9029 35.5292L23.9116 35.5252L23.4949 34.6162ZM8.61278 36.0303V35.0303H7.61278V36.0303H8.61278ZM8.61278 53V54H9.61278V53H8.61278ZM0.734 53H-0.266V54H0.734V53ZM0.734 3.97648V2.97648H-0.266V3.97648H0.734ZM19.9932 27.5455L19.546 26.6511L19.546 26.6511L19.9932 27.5455ZM22.6868 25.3233L21.8868 24.7233L21.877 24.7364L21.8676 24.7498L22.6868 25.3233ZM24.101 22.5623L23.1481 22.2591L23.1435 22.2733L23.1395 22.2876L24.101 22.5623ZM24.1683 17.3098L23.2035 17.5729L23.2068 17.5845L24.1683 17.3098ZM22.8215 14.5489L22.0023 15.1223L22.0093 15.1323L22.0165 15.1421L22.8215 14.5489ZM20.1953 12.394L19.7339 13.2812L19.7481 13.2886L19.7625 13.2955L20.1953 12.394ZM8.61278 11.5186V10.5186H7.61278V11.5186H8.61278ZM8.61278 28.4209H7.61278V29.4209H8.61278V28.4209ZM14.606 4.97648C18.2228 4.97648 21.256 5.5868 23.7396 6.76543L24.5971 4.95857C21.7832 3.62317 18.4416 2.97648 14.606 2.97648V4.97648ZM23.7396 6.76543C26.224 7.9445 28.0878 9.61053 29.37 11.7613L31.0879 10.7371C29.5867 8.21897 27.41 6.29353 24.5971 4.95857L23.7396 6.76543ZM29.3773 11.7733C30.6981 13.9197 31.3838 16.5576 31.3838 19.734H33.3838C33.3838 16.2662 32.6329 13.2476 31.0806 10.7251L29.3773 11.7733ZM31.3838 19.734C31.3838 21.554 31.0878 23.3801 30.4902 25.2157L32.3919 25.8349C33.0513 23.8097 33.3838 21.7749 33.3838 19.734H31.3838ZM30.4838 25.2359C29.9392 27.0372 29.0607 28.6699 27.8427 30.1398L29.3828 31.4158C30.7687 29.7432 31.7756 27.8741 32.3983 25.8147L30.4838 25.2359ZM27.8319 30.1531C26.6884 31.5825 25.1164 32.773 23.0783 33.7071L23.9116 35.5252C26.1832 34.4841 28.0231 33.1156 29.3936 31.4025L27.8319 30.1531ZM23.087 33.7032C21.1411 34.5726 18.6859 35.0303 15.6835 35.0303V37.0303C18.8764 37.0303 21.6287 36.5453 23.9029 35.5292L23.087 33.7032ZM15.6835 35.0303H8.61278V37.0303H15.6835V35.0303ZM7.61278 36.0303V53H9.61278V36.0303H7.61278ZM8.61278 52H0.734V54H8.61278V52ZM1.734 53V3.97648H-0.266V53H1.734ZM0.734 4.97648H14.606V2.97648H0.734V4.97648ZM15.6835 29.4209C17.4988 29.4209 19.0984 29.1109 20.4405 28.4399L19.546 26.6511C18.5536 27.1473 17.2801 27.4209 15.6835 27.4209V29.4209ZM20.4405 28.4399C21.7281 27.7961 22.7655 26.9546 23.5061 25.8967L21.8676 24.7498C21.3511 25.4876 20.5928 26.1277 19.546 26.6511L20.4405 28.4399ZM23.4868 25.9233C24.223 24.9417 24.7551 23.9129 25.0625 22.837L23.1395 22.2876C22.9081 23.0973 22.4975 23.9091 21.8868 24.7233L23.4868 25.9233ZM25.0539 22.8655C25.389 21.8124 25.5724 20.8315 25.5724 19.9361H23.5724C23.5724 20.567 23.4415 21.3369 23.1481 22.2591L25.0539 22.8655ZM25.5724 19.9361C25.5724 19.0178 25.4195 18.0489 25.1298 17.0351L23.2068 17.5845C23.4559 18.4563 23.5724 19.2382 23.5724 19.9361H25.5724ZM25.1331 17.0467C24.8302 15.9359 24.3256 14.9043 23.6266 13.9557L22.0165 15.1421C22.5744 15.8993 22.9678 16.7084 23.2036 17.5729L25.1331 17.0467ZM23.6408 13.9754C22.901 12.9186 21.8838 12.0953 20.628 11.4925L19.7625 13.2955C20.7514 13.7701 21.4851 14.3834 22.0023 15.1223L23.6408 13.9754ZM20.6566 11.5068C19.3477 10.8261 17.7386 10.5186 15.8855 10.5186V12.5186C17.5341 12.5186 18.7981 12.7946 19.7339 13.2812L20.6566 11.5068ZM15.8855 10.5186H8.61278V12.5186H15.8855V10.5186ZM7.61278 11.5186V28.4209H9.61278V11.5186H7.61278ZM8.61278 29.4209H15.6835V27.4209H8.61278V29.4209ZM40.352 53H39.352V54H40.352V53ZM40.352 0.474801V-0.525199H39.352V0.474801H40.352ZM47.7594 0.474801H48.7594V-0.525199H47.7594V0.474801ZM47.7594 30.7778L46.7663 30.8946L48.7594 30.7778H47.7594ZM47.6247 29.633L46.7436 29.1602L46.5948 29.4374L46.6316 29.7499L47.6247 29.633ZM52.0018 25.1212L52.5193 25.977L52.5265 25.9726L52.5336 25.9681L52.0018 25.1212ZM68.2981 31.8552H69.2981V31.8465L69.298 31.8377L68.2981 31.8552ZM68.2981 53V54H69.2981V53H68.2981ZM60.756 53H59.756V54H60.756V53ZM60.756 34.5488H61.756V34.5332L61.7555 34.5176L60.756 34.5488ZM59.5439 31.1145L58.782 31.7621L58.7902 31.7718L58.7987 31.7813L59.5439 31.1145ZM55.9076 29.7004L55.9346 28.7007L55.9211 28.7004H55.9076V29.7004ZM51.7998 31.1145L51.1859 30.3251L51.1859 30.3251L51.7998 31.1145ZM48.9042 34.9529L47.9903 34.5467L47.985 34.559L48.9042 34.9529ZM47.8941 53V54H48.8941V53H47.8941ZM41.352 53V0.474801H39.352V53H41.352ZM40.352 1.4748H47.7594V-0.525199H40.352V1.4748ZM46.7594 0.474801V30.7778H48.7594V0.474801H46.7594ZM48.7526 30.661L48.6179 29.5162L46.6316 29.7499L46.7663 30.8946L48.7526 30.661ZM48.5059 30.1058C49.4021 28.4357 50.7295 27.0591 52.5193 25.977L51.4844 24.2655C49.4133 25.5178 47.8227 27.1491 46.7436 29.1602L48.5059 30.1058ZM52.5336 25.9681C54.2777 24.873 56.3977 24.3031 58.9379 24.3031V22.3031C56.0908 22.3031 53.5868 22.9452 51.4701 24.2743L52.5336 25.9681ZM58.9379 24.3031C61.4231 24.3031 63.3958 25.0215 64.9366 26.4042L66.2724 24.9157C64.3115 23.1559 61.8398 22.3031 58.9379 22.3031V24.3031ZM64.9366 26.4042C66.4612 27.7724 67.2578 29.5645 67.2983 31.8728L69.298 31.8377C69.2487 29.0282 68.2495 26.69 66.2724 24.9157L64.9366 26.4042ZM67.2981 31.8552V53H69.2981V31.8552H67.2981ZM68.2981 52H60.756V54H68.2981V52ZM61.756 53V34.5488H59.756V53H61.756ZM61.7555 34.5176C61.7052 32.9077 61.2461 31.5172 60.2892 30.4477L58.7987 31.7813C59.3681 32.4178 59.717 33.3168 59.7565 34.5801L61.7555 34.5176ZM60.3059 30.4669C59.2933 29.2756 57.7596 28.75 55.9346 28.7007L55.8805 30.7C57.3776 30.7405 58.2682 31.1577 58.782 31.7621L60.3059 30.4669ZM55.9076 28.7004C54.1573 28.7004 52.5724 29.2468 51.1859 30.3251L52.4138 31.9039C53.4515 31.0967 54.605 30.7004 55.9076 30.7004V28.7004ZM51.1859 30.3251C49.8253 31.3834 48.7653 32.8031 47.9904 34.5467L49.818 35.359C50.4796 33.8703 51.3501 32.7311 52.4138 31.9039L51.1859 30.3251ZM47.985 34.559C47.2495 36.2752 46.8941 38.2087 46.8941 40.3401H48.8941C48.8941 38.4311 49.2121 36.7731 49.8233 35.3468L47.985 34.559ZM46.8941 40.3401V53H48.8941V40.3401H46.8941ZM47.8941 52H40.352V54H47.8941V52ZM78.3544 30.7105L79.2164 31.2175L79.2206 31.2102L78.3544 30.7105ZM84.011 25.2559L84.4841 26.1369L84.4898 26.1338L84.011 25.2559ZM100.644 25.2559L100.144 26.1221L100.154 26.1278L100.164 26.1332L100.644 25.2559ZM106.166 30.7105L105.292 31.1975L105.297 31.2048L106.166 30.7105ZM106.166 46.266L107.035 46.7603L107.039 46.7531L106.166 46.266ZM100.644 51.7205L100.151 50.8503L100.144 50.8544L100.644 51.7205ZM84.0783 51.9226L83.618 52.8103L83.6245 52.8137L83.6311 52.817L84.0783 51.9226ZM78.3544 46.6027L77.4925 47.1097L77.4961 47.1159L77.4999 47.1221L78.3544 46.6027ZM85.0211 43.101L84.1324 43.5597L84.1387 43.5716L85.0211 43.101ZM87.984 46.3333L87.4433 47.1745L87.4433 47.1745L87.984 46.3333ZM96.4689 46.3333L95.9281 45.4922L95.9211 45.4967L95.9142 45.5013L96.4689 46.3333ZM99.3645 43.101L98.4758 42.6423L98.47 42.6538L99.3645 43.101ZM99.3645 33.9428L98.4643 34.3783L98.4729 34.396L98.4821 34.4134L99.3645 33.9428ZM96.4689 30.6431L95.9142 31.4752L95.9211 31.4798L95.9281 31.4843L96.4689 30.6431ZM87.9167 30.7105L88.4714 31.5425L88.4782 31.5379L87.9167 30.7105ZM77.3342 38.4546C77.3342 35.7446 77.9673 33.3409 79.2163 31.2175L77.4925 30.2034C76.0479 32.6591 75.3342 35.4181 75.3342 38.4546H77.3342ZM79.2206 31.2102C80.4723 29.0405 82.2201 27.3527 84.4841 26.1369L83.5378 24.3749C80.9533 25.7629 78.93 27.7116 77.4882 30.2107L79.2206 31.2102ZM84.4898 26.1338C86.7976 24.875 89.4135 24.2357 92.3611 24.2357V22.2357C89.1135 22.2357 86.1626 22.9432 83.5321 24.378L84.4898 26.1338ZM92.3611 24.2357C95.4053 24.2357 97.9874 24.8778 100.144 26.1221L101.144 24.3897C98.6316 22.9405 95.6917 22.2357 92.3611 22.2357V24.2357ZM100.164 26.1332C102.381 27.3461 104.084 29.0301 105.292 31.1975L107.039 30.2234C105.644 27.7219 103.666 25.7696 101.124 24.3787L100.164 26.1332ZM105.297 31.2048C106.505 33.3302 107.119 35.7385 107.119 38.4546H109.119C109.119 35.4243 108.43 32.6699 107.035 30.2162L105.297 31.2048ZM107.119 38.4546C107.119 41.1704 106.505 43.6045 105.292 45.7789L107.039 46.7531C108.43 44.2586 109.119 41.4851 109.119 38.4546H107.119ZM105.297 45.7717C104.087 47.8981 102.38 49.5889 100.151 50.8503L101.137 52.5908C103.667 51.1586 105.64 49.213 107.035 46.7603L105.297 45.7717ZM100.144 50.8544C97.9894 52.0975 95.3857 52.7407 92.2938 52.7407V54.7407C95.6665 54.7407 98.6296 54.0372 101.144 52.5867L100.144 50.8544ZM92.2938 52.7407C89.3765 52.7407 86.7942 52.1625 84.5255 51.0281L83.6311 52.817C86.2108 54.1069 89.1056 54.7407 92.2938 54.7407V52.7407ZM84.5386 51.0348C82.2737 49.8604 80.5035 48.2131 79.2089 46.0833L77.4999 47.1221C78.9886 49.5714 81.0344 51.4707 83.618 52.8103L84.5386 51.0348ZM79.2163 46.0957C77.9752 43.9858 77.3342 41.4517 77.3342 38.4546H75.3342C75.3342 41.7425 76.0399 44.6404 77.4925 47.1097L79.2163 46.0957ZM82.9436 38.5219C82.9436 40.3326 83.3365 42.0176 84.1324 43.5597L85.9097 42.6424C85.269 41.4011 84.9436 40.0333 84.9436 38.5219H82.9436ZM84.1387 43.5716C84.9356 45.0657 86.0394 46.2721 87.4433 47.1745L88.5248 45.4922C87.4146 44.7785 86.5431 43.8299 85.9034 42.6304L84.1387 43.5716ZM87.4433 47.1745C88.8652 48.0886 90.4453 48.5455 92.1591 48.5455V46.5455C90.8201 46.5455 89.6169 46.1942 88.5248 45.4922L87.4433 47.1745ZM92.1591 48.5455C93.989 48.5455 95.6249 48.0978 97.0236 47.1654L95.9142 45.5013C94.8885 46.185 93.6513 46.5455 92.1591 46.5455V48.5455ZM97.0096 47.1745C98.419 46.2685 99.5058 45.0544 100.259 43.5482L98.47 42.6538C97.8764 43.8412 97.0328 44.782 95.9281 45.4922L97.0096 47.1745ZM100.253 43.5597C101.049 42.0176 101.442 40.3326 101.442 38.5219H99.4419C99.4419 40.0333 99.1165 41.4011 98.4759 42.6424L100.253 43.5597ZM101.442 38.5219C101.442 36.6714 101.051 34.9802 100.247 33.4722L98.4821 34.4134C99.1144 35.599 99.4419 36.9605 99.4419 38.5219H101.442ZM100.265 33.5072C99.514 31.9558 98.427 30.7131 97.0096 29.8019L95.9281 31.4843C97.0247 32.1893 97.8682 33.1463 98.4643 34.3783L100.265 33.5072ZM97.0236 29.8111C95.6249 28.8787 93.989 28.431 92.1591 28.431V30.431C93.6513 30.431 94.8885 30.7914 95.9142 31.4752L97.0236 29.8111ZM92.1591 28.431C90.3949 28.431 88.7838 28.9136 87.3552 29.883L88.4782 31.5379C89.5636 30.8014 90.7807 30.431 92.1591 30.431V28.431ZM87.362 29.8784C86.0058 30.7825 84.9309 31.9869 84.1387 33.4722L85.9034 34.4134C86.5478 33.2051 87.4033 32.2546 88.4714 31.5425L87.362 29.8784ZM84.1387 33.4722C83.3344 34.9802 82.9436 36.6714 82.9436 38.5219H84.9436C84.9436 36.9605 85.2711 35.599 85.9034 34.4134L84.1387 33.4722ZM122.845 24.5152L123.839 24.4059L123.741 23.5152H122.845V24.5152ZM123.518 30.6431L122.57 30.9593L124.513 30.5339L123.518 30.6431ZM123.249 29.835L122.355 29.3878L122.169 29.7583L122.3 30.1513L123.249 29.835ZM127.626 25.1212L128.144 25.977L128.149 25.9736L127.626 25.1212ZM143.99 31.8552H144.99V31.8465L144.99 31.8377L143.99 31.8552ZM143.99 53V54H144.99V53H143.99ZM136.448 53H135.448V54H136.448V53ZM136.448 34.5488H137.448V34.5332L137.447 34.5176L136.448 34.5488ZM135.236 31.1145L134.474 31.7621L134.482 31.7718L134.49 31.7813L135.236 31.1145ZM131.599 29.7004L131.626 28.7007L131.613 28.7004H131.599V29.7004ZM127.492 31.1145L128.087 31.9181L128.096 31.9111L128.105 31.9039L127.492 31.1145ZM124.596 34.8855L123.682 34.4794L123.677 34.4916L124.596 34.8855ZM123.586 53V54H124.586V53H123.586ZM116.044 53H115.044V54H116.044V53ZM116.044 24.5152V23.5152H115.044V24.5152H116.044ZM121.851 24.6244L122.524 30.7524L124.513 30.5339L123.839 24.4059L121.851 24.6244ZM124.467 30.3269L124.198 29.5188L122.3 30.1513L122.57 30.9593L124.467 30.3269ZM124.144 30.2823C125.045 28.4798 126.371 27.0486 128.144 25.977L127.109 24.2655C125.02 25.5283 123.429 27.2397 122.355 29.3878L124.144 30.2823ZM128.149 25.9736C129.943 24.8728 132.09 24.3031 134.63 24.3031V22.3031C131.782 22.3031 129.26 22.9455 127.103 24.2689L128.149 25.9736ZM134.63 24.3031C137.115 24.3031 139.088 25.0215 140.628 26.4042L141.964 24.9157C140.003 23.1559 137.532 22.3031 134.63 22.3031V24.3031ZM140.628 26.4042C142.153 27.7724 142.95 29.5645 142.99 31.8728L144.99 31.8377C144.94 29.0282 143.941 26.69 141.964 24.9157L140.628 26.4042ZM142.99 31.8552V53H144.99V31.8552H142.99ZM143.99 52H136.448V54H143.99V52ZM137.448 53V34.5488H135.448V53H137.448ZM137.447 34.5176C137.397 32.9077 136.938 31.5172 135.981 30.4477L134.49 31.7813C135.06 32.4178 135.409 33.3168 135.448 34.5801L137.447 34.5176ZM135.998 30.4669C134.985 29.2756 133.451 28.75 131.626 28.7007L131.572 30.7C133.069 30.7405 133.96 31.1577 134.474 31.7621L135.998 30.4669ZM131.599 28.7004C129.849 28.7004 128.264 29.2468 126.878 30.3251L128.105 31.9039C129.143 31.0967 130.297 30.7004 131.599 30.7004V28.7004ZM126.896 30.3109C125.523 31.328 124.458 32.7329 123.682 34.4794L125.51 35.2917C126.17 33.8059 127.036 32.6967 128.087 31.9181L126.896 30.3109ZM123.677 34.4916C122.94 36.2104 122.586 38.1671 122.586 40.3401H124.586C124.586 38.3829 124.905 36.7032 125.515 35.2795L123.677 34.4916ZM122.586 40.3401V53H124.586V40.3401H122.586ZM123.586 52H116.044V54H123.586V52ZM117.044 53V24.5152H115.044V53H117.044ZM116.044 25.5152H122.845V23.5152H116.044V25.5152ZM159.366 51.7879L159.846 50.9106L159.366 51.7879ZM153.911 46.4007L153.031 46.8748L153.035 46.8819L153.911 46.4007ZM154.181 30.7778L153.334 30.2463L153.334 30.2463L154.181 30.7778ZM159.972 25.3233L160.458 26.1974L160.463 26.1944L159.972 25.3233ZM177.75 26.6701L177.076 27.4094L177.083 27.4157L177.09 27.4218L177.75 26.6701ZM182.868 36.2323L183.187 37.1799L184.026 36.897L183.847 36.0301L182.868 36.2323ZM159.905 43.9764L158.98 44.3579L159.337 45.2231L160.224 44.924L159.905 43.9764ZM158.154 39.734L157.818 38.7923L156.829 39.1453L157.229 40.1155L158.154 39.734ZM176.066 33.3367L176.558 34.2073L175.73 32.395L176.066 33.3367ZM174.517 34.2121L173.579 34.5564L173.984 35.6623L175.01 35.0827L174.517 34.2121ZM172.093 30.7105L171.418 31.4476L171.425 31.4545L171.433 31.4612L172.093 30.7105ZM163.339 30.3738L163.849 31.2341L163.86 31.2272L163.872 31.22L163.339 30.3738ZM160.443 33.4714L159.561 33.0008L159.555 33.012L160.443 33.4714ZM160.578 42.9663L161.455 42.4855L161.455 42.4855L160.578 42.9663ZM163.676 46.1987L163.17 47.0614L163.181 47.0679L163.193 47.0742L163.676 46.1987ZM171.487 46.67L171.838 47.6064L171.838 47.6064L171.487 46.67ZM174.517 45.0539L175.369 44.5304L174.808 43.6172L173.936 44.2401L174.517 45.0539ZM177.952 50.6431L178.489 51.4868L179.319 50.9583L178.804 50.1196L177.952 50.6431ZM173.036 52.9327L173.33 53.8884L173.338 53.8861L173.345 53.8837L173.036 52.9327ZM167.986 52.7407C164.746 52.7407 162.047 52.1148 159.846 50.9106L158.886 52.6651C161.444 54.0648 164.491 54.7407 167.986 54.7407V52.7407ZM159.846 50.9106C157.627 49.6965 155.95 48.0352 154.788 45.9194L153.035 46.8819C154.387 49.3452 156.346 51.2754 158.886 52.6651L159.846 50.9106ZM154.792 45.9266C153.621 43.7521 153.026 41.2915 153.026 38.5219H151.026C151.026 41.5885 151.688 44.3804 153.031 46.8748L154.792 45.9266ZM153.026 38.5219C153.026 35.8244 153.698 33.4294 155.028 31.3093L153.334 30.2463C151.791 32.7053 151.026 35.4731 151.026 38.5219H153.026ZM155.028 31.3093C156.372 29.1664 158.177 27.4645 160.458 26.1974L159.486 24.4491C156.919 25.8756 154.862 27.8101 153.334 30.2463L155.028 31.3093ZM160.463 26.1944C162.775 24.8911 165.321 24.2357 168.12 24.2357V22.2357C164.993 22.2357 162.107 22.972 159.481 24.4521L160.463 26.1944ZM168.12 24.2357C171.816 24.2357 174.774 25.3124 177.076 27.4094L178.423 25.9307C175.698 23.4486 172.235 22.2357 168.12 22.2357V24.2357ZM177.09 27.4218C179.45 29.4916 181.069 32.4656 181.888 36.4346L183.847 36.0301C182.961 31.7387 181.168 28.3379 178.409 25.9183L177.09 27.4218ZM182.548 35.2848L159.585 43.0289L160.224 44.924L183.187 37.1799L182.548 35.2848ZM160.829 43.595L159.078 39.3525L157.229 40.1155L158.98 44.3579L160.829 43.595ZM158.49 40.6758L176.403 34.2785L175.73 32.395L157.818 38.7923L158.49 40.6758ZM175.574 32.4662L174.025 33.3416L175.01 35.0827L176.558 34.2073L175.574 32.4662ZM175.456 33.8679C174.903 32.3578 173.996 31.0527 172.754 29.9597L171.433 31.4612C172.435 32.3435 173.145 33.3729 173.579 34.5564L175.456 33.8679ZM172.769 29.9733C171.45 28.7647 169.65 28.229 167.514 28.229V30.229C169.328 30.229 170.581 30.6809 171.418 31.4476L172.769 29.9733ZM167.514 28.229C165.773 28.229 164.193 28.6542 162.806 29.5275L163.872 31.22C164.909 30.5669 166.112 30.229 167.514 30.229V28.229ZM162.829 29.5135C161.447 30.3329 160.358 31.5064 159.561 33.0008L161.326 33.942C161.965 32.7428 162.807 31.8513 163.849 31.2341L162.829 29.5135ZM159.555 33.012C158.794 34.4844 158.433 36.1977 158.433 38.1179H160.433C160.433 36.4465 160.746 35.0622 161.332 33.9308L159.555 33.012ZM158.433 38.1179C158.433 40.0995 158.845 41.8861 159.701 43.4472L161.455 42.4855C160.785 41.2632 160.433 39.8174 160.433 38.1179H158.433ZM159.701 43.4472C160.547 44.9888 161.704 46.2019 163.17 47.0614L164.181 45.336C163.044 44.669 162.136 43.7273 161.455 42.4855L159.701 43.4472ZM163.193 47.0742C164.659 47.8834 166.31 48.2761 168.12 48.2761V46.2761C166.608 46.2761 165.296 45.9505 164.159 45.3231L163.193 47.0742ZM168.12 48.2761C169.406 48.2761 170.647 48.0531 171.838 47.6064L171.136 45.7337C170.173 46.095 169.169 46.2761 168.12 46.2761V48.2761ZM171.838 47.6064C172.998 47.1715 174.085 46.5914 175.099 45.8676L173.936 44.2401C173.064 44.8632 172.131 45.3605 171.136 45.7337L171.838 47.6064ZM173.665 45.5774L177.1 51.1666L178.804 50.1196L175.369 44.5304L173.665 45.5774ZM177.415 49.7994C176.01 50.6937 174.448 51.4221 172.727 51.9816L173.345 53.8837C175.215 53.276 176.931 52.478 178.489 51.4868L177.415 49.7994ZM172.742 51.9769C171.074 52.4901 169.49 52.7407 167.986 52.7407V54.7407C169.714 54.7407 171.496 54.4526 173.33 53.8884L172.742 51.9769ZM215.272 5.862L214.843 6.76543L214.843 6.76543L215.272 5.862ZM221.332 11.2492L220.473 11.7613L220.481 11.7733L221.332 11.2492ZM222.545 25.5253L221.594 25.2157L221.59 25.2258L221.587 25.2359L222.545 25.5253ZM219.716 30.7778L218.946 30.1398L218.941 30.1464L218.935 30.1531L219.716 30.7778ZM214.598 34.6162L215.006 35.5292L215.015 35.5252L214.598 34.6162ZM199.716 36.0303V35.0303H198.716V36.0303H199.716ZM199.716 53V54H200.716V53H199.716ZM191.838 53H190.838V54H191.838V53ZM191.838 3.97648V2.97648H190.838V3.97648H191.838ZM211.097 27.5455L210.65 26.6511L210.65 26.6511L211.097 27.5455ZM213.79 25.3233L212.99 24.7233L212.981 24.7364L212.971 24.7498L213.79 25.3233ZM215.205 22.5623L214.252 22.2591L214.247 22.2733L214.243 22.2876L215.205 22.5623ZM215.272 17.3098L214.307 17.5729L214.31 17.5845L215.272 17.3098ZM213.925 14.5489L213.106 15.1223L213.113 15.1323L213.12 15.1421L213.925 14.5489ZM211.299 12.394L210.837 13.2812L210.852 13.2886L210.866 13.2955L211.299 12.394ZM199.716 11.5186V10.5186H198.716V11.5186H199.716ZM199.716 28.4209H198.716V29.4209H199.716V28.4209ZM205.71 4.97648C209.326 4.97648 212.36 5.5868 214.843 6.76543L215.701 4.95857C212.887 3.62317 209.545 2.97648 205.71 2.97648V4.97648ZM214.843 6.76543C217.328 7.9445 219.191 9.61053 220.474 11.7613L222.191 10.7371C220.69 8.21897 218.514 6.29353 215.701 4.95857L214.843 6.76543ZM220.481 11.7733C221.802 13.9197 222.487 16.5576 222.487 19.734H224.487C224.487 16.2662 223.736 13.2476 222.184 10.7251L220.481 11.7733ZM222.487 19.734C222.487 21.554 222.191 23.3801 221.594 25.2157L223.495 25.8349C224.155 23.8097 224.487 21.7749 224.487 19.734H222.487ZM221.587 25.2359C221.043 27.0372 220.164 28.6699 218.946 30.1398L220.486 31.4158C221.872 29.7432 222.879 27.8741 223.502 25.8147L221.587 25.2359ZM218.935 30.1531C217.792 31.5825 216.22 32.773 214.182 33.7071L215.015 35.5252C217.287 34.4841 219.127 33.1156 220.497 31.4025L218.935 30.1531ZM214.191 33.7032C212.245 34.5726 209.789 35.0303 206.787 35.0303V37.0303C209.98 37.0303 212.732 36.5453 215.006 35.5292L214.191 33.7032ZM206.787 35.0303H199.716V37.0303H206.787V35.0303ZM198.716 36.0303V53H200.716V36.0303H198.716ZM199.716 52H191.838V54H199.716V52ZM192.838 53V3.97648H190.838V53H192.838ZM191.838 4.97648H205.71V2.97648H191.838V4.97648ZM206.787 29.4209C208.602 29.4209 210.202 29.1109 211.544 28.4399L210.65 26.6511C209.657 27.1473 208.384 27.4209 206.787 27.4209V29.4209ZM211.544 28.4399C212.832 27.7961 213.869 26.9546 214.61 25.8967L212.971 24.7498C212.455 25.4876 211.696 26.1277 210.65 26.6511L211.544 28.4399ZM214.59 25.9233C215.327 24.9417 215.859 23.9129 216.166 22.837L214.243 22.2876C214.012 23.0973 213.601 23.9091 212.99 24.7233L214.59 25.9233ZM216.157 22.8655C216.493 21.8124 216.676 20.8315 216.676 19.9361H214.676C214.676 20.567 214.545 21.3369 214.252 22.2591L216.157 22.8655ZM216.676 19.9361C216.676 19.0178 216.523 18.0489 216.233 17.0351L214.31 17.5845C214.559 18.4563 214.676 19.2382 214.676 19.9361H216.676ZM216.237 17.0467C215.934 15.9359 215.429 14.9043 214.73 13.9557L213.12 15.1421C213.678 15.8993 214.071 16.7084 214.307 17.5729L216.237 17.0467ZM214.744 13.9754C214.005 12.9186 212.987 12.0953 211.732 11.4925L210.866 13.2955C211.855 13.7701 212.589 14.3834 213.106 15.1223L214.744 13.9754ZM211.76 11.5068C210.451 10.8261 208.842 10.5186 206.989 10.5186V12.5186C208.638 12.5186 209.902 12.7946 210.837 13.2812L211.76 11.5068ZM206.989 10.5186H199.716V12.5186H206.989V10.5186ZM198.716 11.5186V28.4209H200.716V11.5186H198.716ZM199.716 29.4209H206.787V27.4209H199.716V29.4209ZM231.456 24.5152V23.5152H230.456V24.5152H231.456ZM238.998 24.5152H239.998V23.5152H238.998V24.5152ZM238.998 53V54H239.998V53H238.998ZM231.456 53H230.456V54H231.456V53ZM232.466 11.4512L231.836 10.674L231.827 10.6815L231.818 10.6893L232.466 11.4512ZM238.392 11.4512L237.725 12.1965L237.734 12.2049L237.744 12.2132L238.392 11.4512ZM238.392 17.2425L239.036 18.0074L239.039 18.0044L238.392 17.2425ZM232.466 17.1751L231.818 17.9371L231.827 17.9448L231.836 17.9524L232.466 17.1751ZM231.456 25.5152H238.998V23.5152H231.456V25.5152ZM237.998 24.5152V53H239.998V24.5152H237.998ZM238.998 52H231.456V54H238.998V52ZM232.456 53V24.5152H230.456V53H232.456ZM232.119 14.3468C232.119 13.4762 232.436 12.7884 233.113 12.2132L231.818 10.6893C230.699 11.6404 230.119 12.883 230.119 14.3468H232.119ZM233.095 12.2285C233.883 11.5902 234.676 11.3064 235.496 11.3064V9.30644C234.161 9.30644 232.934 9.78586 231.836 10.674L233.095 12.2285ZM235.496 11.3064C236.311 11.3064 237.043 11.5862 237.725 12.1965L239.058 10.706C238.034 9.78989 236.836 9.30644 235.496 9.30644V11.3064ZM237.744 12.2132C238.421 12.7884 238.738 13.4762 238.738 14.3468H240.738C240.738 12.883 240.158 11.6404 239.039 10.6893L237.744 12.2132ZM238.738 14.3468C238.738 15.2175 238.421 15.9052 237.744 16.4805L239.039 18.0044C240.158 17.0533 240.738 15.8107 240.738 14.3468H238.738ZM237.747 16.4775C237.068 17.0498 236.329 17.3199 235.496 17.3199V19.3199C236.818 19.3199 238.009 18.8717 239.036 18.0074L237.747 16.4775ZM235.496 17.3199C234.676 17.3199 233.883 17.0361 233.095 16.3979L231.836 17.9524C232.934 18.8405 234.161 19.3199 235.496 19.3199V17.3199ZM233.113 16.4132C232.426 15.8291 232.119 15.1595 232.119 14.3468H230.119C230.119 15.7789 230.709 16.9947 231.818 17.9371L233.113 16.4132ZM249.343 0.474801V-0.525199H248.343V0.474801H249.343ZM256.885 0.474801H257.885V-0.525199H256.885V0.474801ZM256.885 53V54H257.885V53H256.885ZM249.343 53H248.343V54H249.343V53ZM249.343 1.4748H256.885V-0.525199H249.343V1.4748ZM255.885 0.474801V53H257.885V0.474801H255.885ZM256.885 52H249.343V54H256.885V52ZM250.343 53V0.474801H248.343V53H250.343ZM266.893 30.7105L267.755 31.2175L267.759 31.2102L266.893 30.7105ZM272.55 25.2559L273.023 26.1369L273.029 26.1338L272.55 25.2559ZM289.183 25.2559L288.683 26.1221L288.693 26.1278L288.703 26.1332L289.183 25.2559ZM294.705 30.7105L293.831 31.1975L293.835 31.2048L294.705 30.7105ZM294.705 46.266L295.574 46.7603L295.578 46.7531L294.705 46.266ZM289.183 51.7205L288.69 50.8503L288.683 50.8544L289.183 51.7205ZM272.617 51.9226L272.157 52.8103L272.163 52.8137L272.17 52.817L272.617 51.9226ZM266.893 46.6027L266.031 47.1097L266.035 47.1159L266.039 47.1221L266.893 46.6027ZM273.56 43.101L272.671 43.5597L272.678 43.5716L273.56 43.101ZM276.523 46.3333L275.982 47.1745L275.982 47.1745L276.523 46.3333ZM285.008 46.3333L284.467 45.4922L284.46 45.4967L284.453 45.5013L285.008 46.3333ZM287.903 43.101L287.015 42.6423L287.009 42.6538L287.903 43.101ZM287.903 33.9428L287.003 34.3783L287.012 34.396L287.021 34.4134L287.903 33.9428ZM285.008 30.6431L284.453 31.4752L284.46 31.4798L284.467 31.4843L285.008 30.6431ZM276.455 30.7105L277.01 31.5425L277.017 31.5379L276.455 30.7105ZM265.873 38.4546C265.873 35.7446 266.506 33.3409 267.755 31.2175L266.031 30.2034C264.587 32.6591 263.873 35.4181 263.873 38.4546H265.873ZM267.759 31.2102C269.011 29.0405 270.759 27.3527 273.023 26.1369L272.077 24.3749C269.492 25.7629 267.469 27.7116 266.027 30.2107L267.759 31.2102ZM273.029 26.1338C275.336 24.875 277.952 24.2357 280.9 24.2357V22.2357C277.652 22.2357 274.701 22.9432 272.071 24.378L273.029 26.1338ZM280.9 24.2357C283.944 24.2357 286.526 24.8778 288.683 26.1221L289.682 24.3897C287.17 22.9405 284.231 22.2357 280.9 22.2357V24.2357ZM288.703 26.1332C290.919 27.3461 292.623 29.0301 293.831 31.1975L295.578 30.2234C294.183 27.7219 292.205 25.7696 289.663 24.3787L288.703 26.1332ZM293.835 31.2048C295.044 33.3302 295.657 35.7385 295.657 38.4546H297.657C297.657 35.4243 296.969 32.6699 295.574 30.2162L293.835 31.2048ZM295.657 38.4546C295.657 41.1704 295.044 43.6045 293.831 45.7789L295.578 46.7531C296.969 44.2586 297.657 41.4851 297.657 38.4546H295.657ZM293.835 45.7717C292.626 47.8981 290.919 49.5889 288.69 50.8503L289.675 52.5908C292.206 51.1586 294.179 49.213 295.574 46.7603L293.835 45.7717ZM288.683 50.8544C286.528 52.0975 283.924 52.7407 280.833 52.7407V54.7407C284.205 54.7407 287.168 54.0372 289.682 52.5867L288.683 50.8544ZM280.833 52.7407C277.915 52.7407 275.333 52.1625 273.064 51.0281L272.17 52.817C274.75 54.1069 277.644 54.7407 280.833 54.7407V52.7407ZM273.077 51.0348C270.813 49.8604 269.042 48.2131 267.748 46.0833L266.039 47.1221C267.527 49.5714 269.573 51.4707 272.157 52.8103L273.077 51.0348ZM267.755 46.0957C266.514 43.9858 265.873 41.4517 265.873 38.4546H263.873C263.873 41.7425 264.579 44.6404 266.031 47.1097L267.755 46.0957ZM271.482 38.5219C271.482 40.3326 271.875 42.0176 272.671 43.5597L274.448 42.6424C273.808 41.4011 273.482 40.0333 273.482 38.5219H271.482ZM272.678 43.5716C273.474 45.0657 274.578 46.2721 275.982 47.1745L277.064 45.4922C275.953 44.7785 275.082 43.8299 274.442 42.6304L272.678 43.5716ZM275.982 47.1745C277.404 48.0886 278.984 48.5455 280.698 48.5455V46.5455C279.359 46.5455 278.156 46.1942 277.064 45.4922L275.982 47.1745ZM280.698 48.5455C282.528 48.5455 284.164 48.0978 285.562 47.1654L284.453 45.5013C283.427 46.185 282.19 46.5455 280.698 46.5455V48.5455ZM285.548 47.1745C286.958 46.2685 288.045 45.0544 288.798 43.5482L287.009 42.6538C286.415 43.8412 285.572 44.782 284.467 45.4922L285.548 47.1745ZM288.792 43.5597C289.588 42.0176 289.981 40.3326 289.981 38.5219H287.981C287.981 40.0333 287.655 41.4011 287.015 42.6424L288.792 43.5597ZM289.981 38.5219C289.981 36.6714 289.59 34.9802 288.786 33.4722L287.021 34.4134C287.653 35.599 287.981 36.9605 287.981 38.5219H289.981ZM288.803 33.5072C288.053 31.9558 286.966 30.7131 285.548 29.8019L284.467 31.4843C285.564 32.1893 286.407 33.1463 287.003 34.3783L288.803 33.5072ZM285.562 29.8111C284.164 28.8787 282.528 28.431 280.698 28.431V30.431C282.19 30.431 283.427 30.7914 284.453 31.4752L285.562 29.8111ZM280.698 28.431C278.934 28.431 277.323 28.9136 275.894 29.883L277.017 31.5379C278.102 30.8014 279.32 30.431 280.698 30.431V28.431ZM275.901 29.8784C274.545 30.7825 273.47 31.9869 272.678 33.4722L274.442 34.4134C275.087 33.2051 275.942 32.2546 277.01 31.5425L275.901 29.8784ZM272.678 33.4722C271.873 34.9802 271.482 36.6714 271.482 38.5219H273.482C273.482 36.9605 273.81 35.599 274.442 34.4134L272.678 33.4722ZM307.276 11.9899V10.9899H306.276V11.9899H307.276ZM314.886 11.9899H315.886V10.9899H314.886V11.9899ZM314.886 24.5152H313.886V25.5152H314.886V24.5152ZM322.293 24.5152H323.293V23.5152H322.293V24.5152ZM322.293 30.4411V31.4411H323.293V30.4411H322.293ZM314.886 30.4411V29.4411H313.886V30.4411H314.886ZM314.886 53V54H315.886V53H314.886ZM307.276 53H306.276V54H307.276V53ZM307.276 30.4411H308.276V29.4411H307.276V30.4411ZM302.428 30.4411H301.428V31.4411H302.428V30.4411ZM302.428 24.5152V23.5152H301.428V24.5152H302.428ZM307.276 24.5152V25.5152H308.276V24.5152H307.276ZM307.276 12.9899H314.886V10.9899H307.276V12.9899ZM313.886 11.9899V24.5152H315.886V11.9899H313.886ZM314.886 25.5152H322.293V23.5152H314.886V25.5152ZM321.293 24.5152V30.4411H323.293V24.5152H321.293ZM322.293 29.4411H314.886V31.4411H322.293V29.4411ZM313.886 30.4411V53H315.886V30.4411H313.886ZM314.886 52H307.276V54H314.886V52ZM308.276 53V30.4411H306.276V53H308.276ZM307.276 29.4411H302.428V31.4411H307.276V29.4411ZM303.428 30.4411V24.5152H301.428V30.4411H303.428ZM302.428 25.5152H307.276V23.5152H302.428V25.5152ZM308.276 24.5152V11.9899H306.276V24.5152H308.276Z" fill="#666647"/>
<defs>
<filter id="filter0_i_9_19" x="0.734009" y="0.474792" width="381.559" height="98.2659" filterUnits="userSpaceOnUse" color-interpolation-filters="sRGB">
<feFlood flood-opacity="0" result="BackgroundImageFix"/>
<feBlend mode="normal" in="SourceGraphic" in2="BackgroundImageFix" result="shape"/>
<feColorMatrix in="SourceAlpha" type="matrix" values="0 0 0 0 0 0 0 0 0 0 0 0 0 0 0 0 0 0 127 0" result="hardAlpha"/>
<feOffset dx="76" dy="45"/>
<feGaussianBlur stdDeviation="30"/>
<feComposite in2="hardAlpha" operator="arithmetic" k2="-1" k3="1"/>
<feColorMatrix type="matrix" values="0 0 0 0 0.966667 0 0 0 0 0.966667 0 0 0 0 0.382639 0 0 0 0.79 0"/>
<feBlend mode="hard-light" in2="shape" result="effect1_innerShadow_9_19"/>
</filter>
</defs>
</svg>
